<svg xmlns="http://www.w3.org/2000/svg" width="28.477" height="27.756" viewBox="0 0 28.477 27.756">
  <path id="arrow-right-solid_1_" data-name="arrow-right-solid (1)" d="M12.108,39.509,13.519,38.1a1.519,1.519,0,0,1,2.155,0L28.029,50.447a1.519,1.519,0,0,1,0,2.155L15.673,64.958a1.519,1.519,0,0,1-2.155,0l-1.411-1.411a1.527,1.527,0,0,1,.025-2.18l7.659-7.3H1.525A1.522,1.522,0,0,1,0,52.545V50.511a1.522,1.522,0,0,1,1.525-1.525H19.792l-7.659-7.3A1.516,1.516,0,0,1,12.108,39.509Z" transform="translate(0 -37.65)" fill="#fdd036"/>
</svg>
